<?xml version="1.0" standalone="no"?>
<!DOCTYPE svg PUBLIC "-//W3C//DTD SVG 20010904//EN"
 "http://www.w3.org/TR/2001/REC-SVG-20010904/DTD/svg10.dtd">
<svg version="1.0" xmlns="http://www.w3.org/2000/svg"
 width="1024.000000pt" height="1024.000000pt" viewBox="0 0 1024.000000 1024.000000"
 preserveAspectRatio="xMidYMid meet">

<g transform="translate(0.000000,1024.000000) scale(0.100000,-0.100000)"
fill="#000000" stroke="none">
<path d="M4816 8497 c2 -375 0 -687 -4 -693 -4 -6 -32 -18 -62 -28 -397 -128
-835 -458 -1068 -805 -239 -355 -337 -569 -427 -938 -26 -103 -51 -193 -56
-199 -6 -8 43 -62 156 -172 l165 -160 -158 -162 -157 -162 41 -167 c85 -339
193 -570 382 -811 188 -242 438 -439 732 -578 126 -60 339 -142 367 -142 32 0
93 -21 93 -31 0 -6 -27 -36 -60 -68 -54 -53 -60 -62 -60 -100 0 -40 1 -41 30
-36 28 5 40 -5 147 -112 65 -65 149 -158 188 -208 81 -103 108 -115 113 -52 3
36 -1 43 -75 113 -43 41 -99 85 -125 97 -26 12 -47 25 -48 28 0 3 52 55 116
114 l115 108 93 -94 c51 -52 100 -111 109 -132 18 -37 18 -37 47 -22 37 19 70
62 70 90 0 16 -17 38 -52 67 -29 23 -62 51 -74 61 -12 10 -29 36 -39 57 -14
31 -28 42 -76 63 l-59 25 -52 -29 c-59 -32 -110 -37 -163 -15 -31 13 -35 19
-35 50 0 29 9 45 48 83 57 58 123 111 176 143 l38 23 40 -47 c22 -25 67 -67
101 -93 106 -79 156 -137 168 -193 6 -27 21 -64 33 -82 24 -34 39 -38 90 -19
23 10 25 13 16 32 -18 33 -82 100 -115 121 -26 15 -27 18 -9 18 49 0 59 33 69
234 l6 119 -33 -7 c-234 -47 -550 -15 -868 87 -131 42 -385 181 -505 277 -160
127 -328 336 -423 525 -190 382 -231 914 -107 1406 85 338 308 708 571 948
361 329 789 504 1264 518 332 10 583 -47 883 -199 340 -173 638 -442 876 -791
18 -27 46 -64 63 -82 l29 -34 142 142 c78 78 241 244 362 370 121 125 279 279
352 342 72 63 155 142 185 177 29 34 68 77 86 96 17 19 32 36 32 38 0 3 -38
55 -84 117 -133 179 -519 546 -770 731 -514 381 -1072 615 -1661 697 -77 10
-152 22 -167 25 l-28 6 0 -189 0 -188 48 -3 c251 -15 645 -122 951 -256 303
-134 649 -356 893 -573 99 -88 328 -325 328 -339 0 -4 -24 -33 -52 -64 -29
-31 -82 -91 -118 -135 -36 -43 -111 -119 -168 -168 -56 -50 -120 -112 -141
-138 -20 -26 -58 -70 -84 -99 l-46 -51 -33 37 c-254 293 -470 474 -728 612
-146 78 -374 171 -485 197 -168 41 -391 75 -484 75 l-88 0 -6 218 c-4 119 -7
407 -7 640 l0 422 -132 0 -133 0 3 -630 3 -630 -23 -9 c-32 -12 -187 -39 -193
-33 -3 3 -5 297 -5 654 l0 648 -139 0 -138 0 3 -683z"/>
<path d="M4457 9154 c-115 -21 -350 -86 -532 -147 -584 -197 -1167 -593 -1599
-1087 -241 -275 -462 -626 -605 -959 -165 -384 -250 -708 -307 -1172 -33 -262
-23 -721 22 -1029 39 -270 130 -598 237 -860 202 -496 535 -976 931 -1343 286
-266 601 -482 961 -659 259 -127 574 -242 865 -317 l155 -40 5 207 c3 114 5
207 5 208 0 1 -56 13 -125 28 -278 61 -663 216 -922 371 -178 107 -437 288
-555 389 -122 105 -333 320 -454 464 -118 140 -307 430 -398 611 -177 351
-275 664 -343 1096 -26 167 -36 610 -19 807 34 375 122 715 284 1098 122 289
322 617 507 834 271 316 523 533 854 733 259 158 651 312 1014 401 l152 37 0
172 0 173 -27 -1 c-16 0 -63 -7 -106 -15z"/>
<path d="M4405 8576 c-347 -98 -512 -161 -751 -286 -191 -99 -279 -157 -439
-284 -198 -159 -289 -247 -435 -423 -332 -398 -560 -832 -685 -1308 -70 -263
-99 -435 -110 -654 l-7 -124 34 24 c18 12 83 68 143 123 61 56 125 112 143
126 31 23 32 27 22 57 -9 25 -7 57 10 160 46 269 112 469 249 742 92 184 135
258 243 416 275 402 576 692 953 920 163 99 294 156 460 200 55 14 145 39 200
55 55 16 112 32 128 35 l27 5 0 130 c0 118 -2 130 -17 129 -10 -1 -85 -20
-168 -43z"/>
<path d="M5783 8596 c4 -10 7 -125 7 -255 l0 -238 73 -7 c86 -8 283 -51 349
-76 l47 -18 12 37 c6 20 35 95 64 166 29 72 62 160 73 197 l20 68 -42 11 c-22
6 -88 24 -146 40 -58 16 -170 40 -250 54 -80 13 -160 27 -179 31 -30 6 -34 5
-28 -10z m332 -260 c17 -12 18 -17 7 -41 -11 -24 -17 -27 -45 -21 -42 8 -61
28 -52 55 8 25 60 29 90 7z"/>
<path d="M6620 8378 c0 -13 -119 -308 -159 -394 l-20 -42 67 -28 c89 -36 320
-152 354 -175 14 -11 28 -19 31 -19 3 0 36 46 72 103 37 56 99 144 137 195 38
52 68 95 66 97 -1 1 -23 13 -48 25 -25 12 -87 47 -138 77 -87 51 -292 152
-340 167 -15 5 -22 3 -22 -6z m196 -270 c24 -18 44 -39 44 -45 0 -7 -13 -27
-29 -45 l-30 -33 -35 34 c-20 19 -36 41 -36 49 0 14 31 72 39 72 2 0 23 -15
47 -32z"/>
<path d="M4501 8115 c-35 -14 -89 -41 -121 -60 -68 -42 -89 -43 -120 -10 -13
14 -31 25 -41 25 -41 0 -234 -98 -252 -128 -3 -4 27 -55 67 -113 94 -139 113
-162 121 -148 22 34 296 192 408 234 52 20 51 17 37 101 -6 32 -13 74 -16 92
-3 17 -8 32 -12 32 -4 -1 -36 -12 -71 -25z"/>
<path d="M7258 7891 c-42 -58 -105 -144 -141 -190 l-64 -85 81 -64 c44 -36
127 -110 183 -165 l101 -100 66 59 c36 32 101 99 144 148 42 49 87 99 100 112
l22 22 -67 64 c-93 88 -174 161 -270 239 l-80 66 -75 -106z m158 -198 c15 -20
19 -69 6 -77 -15 -9 -52 25 -52 48 0 19 16 46 28 46 3 0 11 -8 18 -17z"/>
<path d="M3756 7831 c-11 -15 -44 -46 -74 -67 -91 -65 -204 -159 -257 -214
l-50 -51 50 -45 c109 -98 226 -194 235 -194 6 0 10 4 10 9 0 14 114 124 215
209 50 42 89 80 87 85 -1 4 -38 59 -81 120 -43 62 -86 127 -95 145 -9 17 -18
32 -19 32 -1 0 -11 -13 -21 -29z"/>
<path d="M3215 7340 c-4 -11 -30 -49 -59 -83 -29 -34 -66 -85 -83 -114 l-32
-51 28 -10 c15 -5 87 -51 160 -101 73 -50 136 -89 141 -86 4 2 44 49 88 103
l80 98 -74 59 c-41 32 -105 86 -142 119 -100 91 -99 91 -107 66z"/>
<path d="M2868 6838 c-29 -57 -53 -106 -53 -111 0 -4 54 -32 120 -63 66 -30
152 -71 191 -90 79 -38 84 -39 84 -23 0 16 69 150 88 172 18 21 21 18 -53 54
-33 17 -116 60 -185 96 -69 37 -128 67 -132 67 -3 0 -30 -46 -60 -102z"/>
<path d="M2700 6515 c-5 -14 -10 -28 -10 -31 0 -3 -20 -53 -44 -112 -97 -235
-116 -302 -83 -302 7 0 56 42 110 93 l97 93 42 -44 c45 -46 156 -138 199 -165
l25 -17 33 118 c18 64 41 136 51 158 l18 42 -42 12 c-22 7 -115 49 -206 94
-91 44 -168 82 -172 84 -5 2 -12 -8 -18 -23z"/>
<path d="M5231 5376 c-1 -363 -4 -676 -7 -696 l-6 -35 625 2 625 2 5 -62 c4
-34 5 -758 4 -1609 l-2 -1548 177 0 178 0 2 1678 c1 922 2 1723 2 1780 l0 102
-627 1 -627 0 0 339 c0 186 -3 345 -6 353 -5 13 184 14 1604 10 l1610 -4 -1
173 -2 173 -1776 1 -1777 1 -1 -661z"/>
<path d="M2720 5938 c-25 -33 -121 -129 -215 -213 -194 -174 -259 -239 -254
-253 2 -5 45 -43 94 -84 50 -42 124 -109 165 -149 42 -41 115 -110 164 -153
l88 -79 56 55 c297 285 363 346 404 376 27 18 48 40 48 47 0 8 -55 65 -122
127 -112 104 -210 203 -334 335 l-49 52 -45 -61z m120 -331 c43 -45 89 -89
104 -96 14 -8 25 -18 24 -21 -2 -4 -50 -51 -107 -104 l-104 -97 -66 63 c-36
35 -84 78 -105 97 l-39 33 104 103 c57 57 106 104 108 104 2 1 39 -36 81 -82z"/>
<path d="M1973 5464 c-7 -20 3 -207 23 -394 63 -606 313 -1213 698 -1700 323
-408 834 -793 1342 -1010 127 -55 355 -131 471 -158 l80 -19 6 166 c4 91 5
166 4 168 -2 1 -63 18 -137 37 -270 69 -535 189 -779 351 -194 130 -327 240
-512 424 -273 272 -413 465 -584 801 -165 326 -244 569 -276 849 -6 57 -9 125
-6 152 l6 48 -56 47 c-30 26 -78 75 -105 108 -49 59 -145 146 -161 146 -4 0
-10 -7 -14 -16z"/>
<path d="M5780 5398 c0 -46 -3 -107 -6 -135 l-7 -53 1512 -2 1511 -3 0 135 0
135 -1505 3 -1505 3 0 -83z"/>
<path d="M2919 4917 c-52 -51 -108 -107 -123 -126 l-27 -34 -67 65 c-114 109
-154 141 -162 128 -15 -24 4 -121 52 -270 28 -85 57 -161 64 -169 11 -12 35
-3 156 57 79 39 171 87 205 106 34 19 68 36 75 38 9 3 8 23 -4 84 -9 43 -22
109 -28 147 -9 51 -16 67 -29 67 -9 0 -59 -42 -112 -93z"/>
<path d="M7145 4991 l-100 -6 0 -1772 0 -1772 137 -3 136 -3 6 50 c4 28 5 830
5 1783 l-2 1732 -41 -2 c-23 -1 -86 -4 -141 -7z"/>
<path d="M7546 4595 c-5 -325 -3 -2373 3 -3005 l1 -155 143 0 142 -1 -1 741
c-1 407 -2 1208 -3 1780 l-1 1040 -139 0 -139 0 -6 -400z"/>
<path d="M8053 4636 c4 -198 7 -999 7 -1782 l0 -1422 183 -4 c100 -2 184 -2
187 0 3 2 5 704 6 1560 0 857 1 1581 2 1610 l2 53 175 -4 175 -3 0 175 0 176
-372 0 -371 0 6 -359z"/>
<path d="M3100 4484 c-47 -25 -146 -73 -221 -107 l-136 -63 70 -133 69 -132
27 24 c87 79 330 247 358 247 18 0 17 3 -16 68 -16 32 -34 77 -40 100 -7 23
-15 42 -19 41 -4 0 -45 -20 -92 -45z"/>
<path d="M3329 4154 c-13 -14 -60 -50 -104 -80 -44 -30 -110 -79 -147 -108
-38 -30 -73 -56 -79 -58 -15 -5 17 -67 75 -144 74 -99 58 -102 208 39 73 69
155 143 181 163 39 31 46 40 35 49 -8 5 -40 45 -72 88 -31 42 -60 77 -65 77
-4 0 -18 -12 -32 -26z"/>
<path d="M6165 3918 c-38 -11 -136 -40 -217 -66 l-148 -45 0 -96 c0 -53 -3
-134 -7 -180 l-6 -83 39 6 c21 3 113 17 204 31 91 15 179 28 196 31 30 4 31 6
38 66 3 33 6 128 6 209 0 171 9 160 -105 127z"/>
<path d="M3491 3719 c-85 -88 -167 -167 -183 -177 -15 -9 -28 -19 -27 -22 0
-3 32 -32 70 -65 39 -33 112 -97 162 -143 l92 -83 73 78 c40 43 115 126 167
185 l95 106 -70 52 c-72 53 -147 129 -190 193 -14 20 -27 37 -30 36 -3 0 -74
-72 -159 -160z"/>
<path d="M4146 3519 c-14 -11 -60 -62 -101 -112 -42 -51 -118 -139 -170 -197
-52 -58 -95 -108 -95 -112 0 -4 26 -22 58 -41 31 -19 89 -54 127 -79 39 -25
93 -57 122 -72 129 -65 445 -174 475 -164 8 3 12 18 10 40 -3 27 3 43 22 64
l26 29 22 -30 c28 -39 105 -114 142 -140 l28 -20 3 -405 c2 -223 4 -506 4
-628 l1 -224 134 3 134 4 5 530 c3 291 9 547 13 569 l6 38 -229 227 c-245 244
-240 241 -343 241 -50 0 -114 53 -105 87 l6 25 -32 -19 c-17 -10 -55 -44 -84
-76 l-52 -58 -37 44 c-20 24 -56 59 -81 77 l-45 34 72 73 c57 57 74 69 82 58
24 -29 130 -115 143 -115 8 0 40 20 72 45 31 25 66 45 77 45 11 0 28 6 38 13
16 12 16 14 -10 25 -15 7 -68 39 -118 71 -104 66 -280 171 -288 171 -3 0 -17
-9 -32 -21z"/>
<path d="M5795 3252 c-3 -3 -5 -37 -5 -76 0 -39 -6 -82 -13 -96 -8 -16 -44
-42 -99 -70 -94 -49 -93 -48 -268 -233 -120 -127 -122 -129 -115 -165 4 -20 9
-295 12 -609 l4 -573 134 0 134 0 -1 650 -1 649 51 55 c28 31 72 90 99 132 47
74 48 76 54 48 4 -16 7 -59 8 -95 0 -37 4 -80 7 -96 l6 -30 229 1 229 1 0 180
c0 99 3 210 6 247 l7 66 -74 6 c-104 8 -398 14 -404 8z"/>
<path d="M5793 2494 c4 -21 7 -102 7 -179 l0 -140 230 0 230 0 0 173 0 172
-212 0 c-117 0 -224 3 -237 7 -23 6 -24 5 -18 -33z"/>
<path d="M5790 1702 l0 -249 156 -7 c86 -3 191 -3 235 0 l79 7 0 248 0 249
-235 0 -235 0 0 -248z"/>
</g>
</svg>
